<?xml version="1.0" encoding="UTF-8"?>
<svg id="_Слой_1" data-name="Слой 1" xmlns="http://www.w3.org/2000/svg" viewBox="0 0 521 276">
  <defs>
    <style>
      .cls-1 {
        fill: #ff0a3a;
      }

      .cls-2 {
        fill: #22b573;
      }

      .cls-3 {
        fill: #002835;
      }
    </style>
  </defs>
  <polygon class="cls-1" points="190.27 119.63 190.27 125.31 178.34 127.05 154.49 215.76 148.81 215.76 123.89 141.66 100.53 215.76 94.99 215.76 69.33 126.69 57.36 125.31 57.36 119.63 95.7 119.63 95.7 125.31 82.48 126.96 100.17 192.68 122.07 127 107.63 125.31 107.63 119.63 145.97 119.63 145.97 125.31 131.48 127.09 152.86 193.36 171.14 127.2 157.89 125.31 157.89 119.63 190.27 119.63"/>
  <path class="cls-3" d="m270.83,207.82l-2.99-10.11c-1.53,3.4-3.2,6.73-4.99,9.97-.54.97-1.08,1.93-1.65,2.89-.43.74-.87,1.48-1.32,2.22,2.31,2.45,5.92,3.4,11.62,3.4,4.25,0,7.66-.57,10.22-1.42v-5.68l-10.89-1.27Zm-14.07-84.91c-1.12-.46-2.29-.88-3.53-1.24-4.54-1.34-9.84-2.04-15.81-2.04h-39.34v5.68l13.24,1.53c.25,12.26.25,24.58.25,36.81v7.1c0,12.42,0,24.75-.25,36.81l-13.24,1.53v5.68h29.81c.4-.83.79-1.67,1.16-2.52.59-1.31,1.14-2.64,1.67-3.98l-6.11-.71c-.25-11.86-.26-23.93-.26-36.81h7.1c4.88,0,8.64.34,11.56,1.55.2-.16.4-.33.59-.5.91-.79,1.81-1.61,2.68-2.44,1.91-1.83,3.72-3.77,5.42-5.8,6.97-8.31,12.15-18.17,14.95-28.98.33-1.26.62-2.53.88-3.81-2.56-3.34-6.18-5.99-10.77-7.86Zm-2.19,33.97c-3.62,4.65-9.88,7.48-18.86,7.48h-11.36c0-13.97,0-25.98.27-38.2h12.65c6.24,0,10.98,1.16,14.38,3.42,2.42,1.59,4.15,3.73,5.26,6.39,1.03,2.45,1.52,5.35,1.52,8.65,0,4.77-1.27,8.97-3.86,12.26Z"/>
  <path class="cls-3" d="m364.65,189.49l-1,25.28h-73.41v-5.68l13.24-1.53c.25-12.06.25-24.39.25-36.81v-7.1c0-12.23,0-24.55-.26-36.81l-13.23-1.53v-5.68h70.57l1,25.28h-7.96l-3.16-18.18h-33.93c-.25,11.87-.25,23.99-.25,36.21h21.36l1.93-13.63h6.39v33.65h-6.39l-1.82-13.49h-21.47c0,13.53,0,25.99.25,38.2h36.77l3.16-18.18h7.96Z"/>
  <path class="cls-3" d="m436.35,189.92c0,16.76-14.05,26.98-33.51,26.98-10.65,0-21.01-3.41-27.55-7.53l.86-19.88h8.52l2.8,16.62c4.54,2.52,8.75,3.69,14.95,3.69,13.49,0,22.43-6.25,22.43-17.33,0-9.22-5.54-13.34-17.89-18.17l-5.4-2.13c-14.48-5.68-24.42-13.92-24.42-28.4,0-16.33,13.77-26.27,31.81-26.27,9.51,0,17.04,2.98,23.14,7.53l-.85,18.46h-8.52l-2.96-16.02c-3.64-2.05-7.26-2.87-11.66-2.87-11.08,0-19.46,5.54-19.46,16.19,0,8.94,5.82,14.2,16.19,18.17l5.54,2.13c18.74,7.25,25.98,15.48,25.98,28.83Z"/>
  <path class="cls-3" d="m520.84,147.89c0-16.62-12.07-28.26-35.64-28.26h-38.2v5.68l13.24,1.53c.25,12.26.25,24.58.25,36.81v7.1c0,12.42,0,24.75-.25,36.81l-13.24,1.53v5.68h39.76v-5.68l-13.24-1.53c-.22-10.3-.25-20.14-.25-30.42h7.67c28.97,0,39.9-13.35,39.9-29.25Zm-47.57,15.76c0-12.66,0-25.21.27-37.49h8.96c17.19,0,24.85,7.95,24.85,21.73s-6.81,22.72-24.28,22.72h-9.8v-6.96Z"/>
  <path class="cls-3" d="m34,172c0,56.54,45.11,102.54,101.31,103.97C60.33,274.54,0,213.32,0,138S61.78,0,138,0c58.58,0,108.63,36.49,128.66,87.99-11.51-25.91-37.47-43.99-67.66-43.99-21.69,0-41.2,9.33-54.74,24.2-2.07-.14-4.16-.2-6.26-.2-57.44,0-104,46.56-104,104Z"/>
  <path class="cls-3" d="m276,138c0,1.66-.03,3.32-.09,4.97-.25,7.12-1.04,14.11-2.34,20.91-.69,3.68-1.54,7.31-2.53,10.87-.17.65-.35,1.29-.55,1.93-.78,2.7-1.64,5.37-2.59,7.99-.69,1.94-1.43,3.85-2.21,5.74-.13.32-.26.64-.39.95-1.91,4.57-4.07,9.02-6.45,13.32-.54.97-1.08,1.93-1.65,2.89-1.58,2.72-3.26,5.38-5.03,7.98-1.44,2.12-2.94,4.19-4.5,6.22-15.89,20.79-37.57,36.92-62.63,45.99,0,0-.03.02-.04.02-13.34,4.84-27.64,7.68-42.52,8.13,17.05-.73,33.02-5.55,46.98-13.52,16.76-9.56,30.61-23.66,39.87-40.62.29-.53.58-1.06.86-1.6.93-1.77,1.8-3.57,2.62-5.4.09-.17.16-.35.24-.52.8-1.79,1.55-3.61,2.24-5.46,3.62-9.54,5.86-19.76,6.51-30.41.29-.2.57-.41.86-.63.23-.16.46-.33.69-.51,1.12-.83,2.21-1.7,3.27-2.6.33-.27.66-.55.98-.84.91-.79,1.81-1.61,2.68-2.44.53-.51,1.05-1.02,1.55-1.54.92-.92,1.8-1.87,2.64-2.84.42-.47.83-.94,1.23-1.42,6.97-8.3,12.14-18.16,14.94-28.96t.01-.02c.49-1.9.91-3.83,1.25-5.78.12-.71.23-1.42.33-2.13.51-3.49.77-7.05.77-10.67,0-5.43-.58-10.73-1.7-15.83,1.66,6.18,2.9,12.52,3.68,19,.35,2.89.61,5.8.78,8.74.16,2.68.24,5.38.24,8.09Z"/>
  <path class="cls-2" d="m271.3,102.17c-1.29-4.84-2.85-9.57-4.64-14.18,2.01,4.51,3.57,9.25,4.64,14.18Z"/>
</svg>