<?xml version="1.0" encoding="UTF-8"?>
<svg id="_Слой_1" data-name=" Слой 1" xmlns="http://www.w3.org/2000/svg" viewBox="0 0 276 276">
  <defs>
    <style>
      .cls-1 {
        fill: #ff0a3a;
      }

      .cls-2 {
        fill: #fff;
      }

      .cls-3 {
        fill: #22b573;
      }

      .cls-4 {
        fill: #002835;
      }
    </style>
  </defs>
  <circle class="cls-2" cx="138" cy="138" r="138"/>
  <polygon class="cls-1" points="209.24 119.63 209.24 125.31 197.31 127.05 173.46 215.76 167.78 215.76 142.86 141.66 119.5 215.76 113.96 215.76 88.3 126.69 76.33 125.31 76.33 119.63 114.67 119.63 114.67 125.31 101.45 126.96 119.14 192.68 141.04 127 126.6 125.31 126.6 119.63 164.94 119.63 164.94 125.31 150.45 127.09 171.83 193.36 190.11 127.2 176.86 125.31 176.86 119.63 209.24 119.63"/>
  <path class="cls-4" d="m34,172c0,56.54,45.11,102.54,101.31,103.97C60.33,274.54,0,213.32,0,138S61.78,0,138,0c58.58,0,108.63,36.49,128.66,87.99-11.51-25.91-37.47-43.99-67.66-43.99-21.69,0-41.2,9.33-54.74,24.2-2.07-.14-4.16-.2-6.26-.2-57.44,0-104,46.56-104,104Z"/>
  <path class="cls-4" d="m276,138c0,1.66-.03,3.32-.09,4.97-.25,7.12-1.04,14.11-2.34,20.91-.69,3.68-1.54,7.31-2.53,10.87-.17.65-.35,1.29-.55,1.93-.78,2.7-1.64,5.37-2.59,7.99-.69,1.94-1.43,3.85-2.21,5.74-.13.32-.26.64-.39.95-1.91,4.57-4.07,9.02-6.45,13.32-.54.97-1.08,1.93-1.65,2.89-1.58,2.72-3.26,5.38-5.03,7.98-1.44,2.12-2.94,4.19-4.5,6.22-15.89,20.79-37.57,36.92-62.63,45.99,0,0-.03.02-.04.02-13.34,4.84-27.64,7.68-42.52,8.13,17.05-.73,33.02-5.55,46.98-13.52,16.76-9.56,30.61-23.66,39.87-40.62.29-.53.58-1.06.86-1.6.93-1.77,1.8-3.57,2.62-5.4.09-.17.16-.35.24-.52.8-1.79,1.55-3.61,2.24-5.46,3.62-9.54,5.86-19.76,6.51-30.41.29-.2.57-.41.86-.63.23-.16.46-.33.69-.51,1.12-.83,2.21-1.7,3.27-2.6.33-.27.66-.55.98-.84.91-.79,1.81-1.61,2.68-2.44.53-.51,1.05-1.02,1.55-1.54.92-.92,1.8-1.87,2.64-2.84.42-.47.83-.94,1.23-1.42,6.97-8.3,12.14-18.16,14.94-28.96q1.87-7.2.01-.02c.49-1.9.91-3.83,1.25-5.78.12-.71.23-1.42.33-2.13.51-3.49.77-7.05.77-10.67,0-5.43-.58-10.73-1.7-15.83,1.66,6.18,2.9,12.52,3.68,19,.35,2.89.61,5.8.78,8.74.16,2.68.24,5.38.24,8.09h0Z"/>
  <path class="cls-3" d="m271.3,102.17c-1.29-4.84-2.85-9.57-4.64-14.18,2.01,4.51,3.57,9.25,4.64,14.18Z"/>
</svg>